<svg xmlns="http://www.w3.org/2000/svg" viewBox="0 0 420 300" role="img" aria-labelledby="title desc">
  <title id="title">Android guide til hjemmeskærm</title>
  <desc id="desc">Chrome med menu-knap og menuvalget Føj til startskærm markeret.</desc>
  <rect width="420" height="300" rx="28" fill="#f1f8e8"/>
  <rect x="78" y="18" width="264" height="264" rx="34" fill="#14532d"/>
  <rect x="91" y="33" width="238" height="234" rx="24" fill="#fbfaf3"/>
  <rect x="111" y="52" width="160" height="22" rx="11" fill="#e5e7eb"/>
  <text x="191" y="67" text-anchor="middle" font-family="Arial, sans-serif" font-size="10" font-weight="700" fill="#334155">sennelsapp.dk</text>
  <circle cx="294" cy="58" r="3" fill="#0f172a"/>
  <circle cx="294" cy="65" r="3" fill="#0f172a"/>
  <circle cx="294" cy="72" r="3" fill="#0f172a"/>
  <rect x="111" y="91" width="198" height="54" rx="16" fill="#BFDA6B"/>
  <text x="210" y="113" text-anchor="middle" font-family="Arial, sans-serif" font-size="17" font-weight="800" fill="#0f172a">Malle Strandfest</text>
  <text x="210" y="131" text-anchor="middle" font-family="Arial, sans-serif" font-size="11" fill="#0f172a">Program 2026</text>
  <path d="M294 80 C286 101, 274 108, 256 117" fill="none" stroke="#f97316" stroke-width="5" stroke-linecap="round"/>
  <circle cx="294" cy="94" r="18" fill="#f97316"/>
  <text x="294" y="100" text-anchor="middle" font-family="Arial, sans-serif" font-size="19" font-weight="800" fill="white">1</text>
  <rect x="142" y="82" width="174" height="150" rx="18" fill="#ffffff" stroke="#cbd5e1" filter="url(#shadow)"/>
  <text x="164" y="110" font-family="Arial, sans-serif" font-size="12" font-weight="700" fill="#0f172a">Ny fane</text>
  <text x="164" y="136" font-family="Arial, sans-serif" font-size="12" font-weight="700" fill="#0f172a">Del...</text>
  <text x="164" y="162" font-family="Arial, sans-serif" font-size="12" font-weight="700" fill="#0f172a">Find på siden</text>
  <rect x="156" y="178" width="144" height="32" rx="9" fill="#f8fafc" stroke="#dbe3ec"/>
  <text x="228" y="198" text-anchor="middle" font-family="Arial, sans-serif" font-size="11" font-weight="800" fill="#0f172a">Føj til startskærm</text>
  <circle cx="308" cy="194" r="14" fill="#f97316"/>
  <text x="308" y="199" text-anchor="middle" font-family="Arial, sans-serif" font-size="15" font-weight="800" fill="white">2</text>
  <defs>
    <filter id="shadow" x="122" y="62" width="214" height="190" color-interpolation-filters="sRGB">
      <feDropShadow dx="0" dy="8" stdDeviation="8" flood-opacity="0.18"/>
    </filter>
  </defs>
</svg>
