<svg xmlns="http://www.w3.org/2000/svg" viewBox="0 0 420 300" role="img" aria-labelledby="title desc">
  <title id="title">iPhone guide til hjemmeskærm</title>
  <desc id="desc">Safari med del-knap og menuvalget Føj til hjemmeskærm markeret.</desc>
  <rect width="420" height="300" rx="28" fill="#eef8f7"/>
  <rect x="78" y="18" width="264" height="264" rx="34" fill="#111827"/>
  <rect x="91" y="33" width="238" height="234" rx="24" fill="#fbfaf3"/>
  <rect x="111" y="52" width="198" height="20" rx="10" fill="#e5e7eb"/>
  <text x="210" y="66" text-anchor="middle" font-family="Arial, sans-serif" font-size="10" font-weight="700" fill="#334155">sennelsapp.dk</text>
  <rect x="111" y="86" width="198" height="54" rx="16" fill="#52C4C1"/>
  <text x="210" y="108" text-anchor="middle" font-family="Arial, sans-serif" font-size="17" font-weight="800" fill="#0f172a">Malle Strandfest</text>
  <text x="210" y="126" text-anchor="middle" font-family="Arial, sans-serif" font-size="11" fill="#0f172a">Program 2026</text>
  <rect x="111" y="151" width="198" height="34" rx="12" fill="#ffffff" stroke="#cbd5e1"/>
  <text x="132" y="173" font-family="Arial, sans-serif" font-size="12" font-weight="700" fill="#0f172a">Safari</text>
  <rect x="91" y="205" width="238" height="62" rx="0 0 24 24" fill="#ffffff"/>
  <line x1="91" y1="205" x2="329" y2="205" stroke="#d1d5db"/>
  <g transform="translate(199 216)">
    <rect x="-14" y="9" width="28" height="24" rx="5" fill="none" stroke="#0ea5e9" stroke-width="3"/>
    <path d="M0 22V0m0 0-8 8M0 0l8 8" fill="none" stroke="#0ea5e9" stroke-width="3" stroke-linecap="round" stroke-linejoin="round"/>
  </g>
  <path d="M208 211 C225 191, 252 188, 270 171" fill="none" stroke="#f97316" stroke-width="5" stroke-linecap="round"/>
  <circle cx="273" cy="168" r="18" fill="#f97316"/>
  <text x="273" y="174" text-anchor="middle" font-family="Arial, sans-serif" font-size="19" font-weight="800" fill="white">1</text>
  <rect x="126" y="168" width="168" height="82" rx="18" fill="#ffffff" stroke="#cbd5e1" filter="url(#shadow)"/>
  <text x="210" y="190" text-anchor="middle" font-family="Arial, sans-serif" font-size="13" font-weight="800" fill="#0f172a">Del</text>
  <rect x="144" y="205" width="132" height="28" rx="9" fill="#f8fafc" stroke="#dbe3ec"/>
  <text x="210" y="223" text-anchor="middle" font-family="Arial, sans-serif" font-size="11" font-weight="700" fill="#0f172a">Føj til hjemmeskærm</text>
  <circle cx="292" cy="219" r="14" fill="#f97316"/>
  <text x="292" y="224" text-anchor="middle" font-family="Arial, sans-serif" font-size="15" font-weight="800" fill="white">2</text>
  <defs>
    <filter id="shadow" x="106" y="148" width="208" height="122" color-interpolation-filters="sRGB">
      <feDropShadow dx="0" dy="8" stdDeviation="8" flood-opacity="0.18"/>
    </filter>
  </defs>
</svg>
